<?xml version="1.0" encoding="iso-8859-1"?>
<!-- Generator: Adobe Illustrator 18.0.0, SVG Export Plug-In . SVG Version: 6.00 Build 0)  -->
<!DOCTYPE svg PUBLIC "-//W3C//DTD SVG 1.1//EN" "http://www.w3.org/Graphics/SVG/1.1/DTD/svg11.dtd">
<svg version="1.1" id="Capa_1" xmlns="http://www.w3.org/2000/svg" xmlns:xlink="http://www.w3.org/1999/xlink" x="0px" y="0px"
	 viewBox="0 0 265.293 265.293" style="enable-background:new 0 0 265.293 265.293;" xml:space="preserve">
<g>
	<path d="M260.736,86.776l-17.09-9.702V62.795c0-4.971-4.029-9-9-9h-32.006L137.09,16.582c-2.756-1.564-6.131-1.564-8.887,0
		L62.652,53.795H30.646c-4.971,0-9,4.029-9,9v14.279l-17.09,9.702C1.74,88.375,0,91.416,0,94.655v146.229c0,4.971,4.029,9,9,9
		h247.293c4.971,0,9-4.029,9-9V94.603C265.293,91.364,263.553,88.375,260.736,86.776z M18,130.797h3.684l72.295,42.968L18,224.028
		V130.797z M225.646,71.795v44.967l-4.346,3.035l-63.882,44.612h-43.949L39.61,120.513c0.019-0.237,0.036-0.474,0.036-0.715
		c0,0,0,0,0,0V71.795H225.646z M113.534,182.409h43.7l70.422,49.475H38.748L113.534,182.409z M175.852,173.491l61.135-42.694h10.306
		v92.884L175.852,173.491z M247.293,99.843v12.954h-3.646V97.773L247.293,99.843z M132.646,34.758l33.534,19.037H99.113
		L132.646,34.758z M21.646,97.773v15.024H18V99.843L21.646,97.773z"/>
</g>
<g>
</g>
<g>
</g>
<g>
</g>
<g>
</g>
<g>
</g>
<g>
</g>
<g>
</g>
<g>
</g>
<g>
</g>
<g>
</g>
<g>
</g>
<g>
</g>
<g>
</g>
<g>
</g>
<g>
</g>
</svg>
