<?xml version="1.0" encoding="iso-8859-1"?>
<!-- Generator: Adobe Illustrator 19.0.0, SVG Export Plug-In . SVG Version: 6.00 Build 0)  -->
<svg version="1.1" id="Layer_1" xmlns="http://www.w3.org/2000/svg" xmlns:xlink="http://www.w3.org/1999/xlink" x="0px" y="0px"
	 viewBox="0 0 512 512" style="enable-background:new 0 0 512 512;" xml:space="preserve">
<rect x="239.393" style="fill:#4D4D4D;" width="33.391" height="72.348"/>
<polygon style="fill:#666666;" points="332.906,55.652 129.409,55.652 129.409,184.15 160.633,245.397 160.633,395.511 
	129.409,456.757 129.409,512 334.708,512 "/>
<path style="fill:#333333;" d="M256.106,184.15V55.652h100.152c14.66,0,26.545,11.885,26.545,26.545v403.258
	c0,14.66-11.885,26.545-26.545,26.545H256.106v-55.241l33.025-61.246V245.397L256.106,184.15z"/>
<circle style="fill:#EBECEC;" cx="193.057" cy="119.897" r="18.013"/>
<g>
	<rect x="129.202" y="456.348" style="fill:#4D4D4D;" width="126.887" height="55.652"/>
	<polygon style="fill:#4D4D4D;" points="289.476,244.87 160.363,244.87 129.198,183.652 256.085,183.652 	"/>
</g>
<polygon style="fill:#C7EAF0;" points="170.862,228.701 261.16,228.701 246.141,200.845 156.661,200.845 "/>
<polygon style="fill:#666666;" points="256.085,456.348 129.198,456.348 160.363,395.13 289.476,395.13 "/>
<rect x="160.367" y="244.87" style="fill:#808181;" width="129.113" height="150.261"/>
<g>
	<rect x="178.677" y="260.307" style="fill:#EBECEC;" width="31.773" height="33.391"/>
	<rect x="229.387" y="260.307" style="fill:#EBECEC;" width="31.773" height="33.391"/>
	<rect x="178.677" y="350.464" style="fill:#EBECEC;" width="31.773" height="33.391"/>
	<rect x="229.387" y="350.464" style="fill:#EBECEC;" width="31.773" height="33.391"/>
	<rect x="178.677" y="305.386" style="fill:#EBECEC;" width="31.773" height="33.391"/>
	<rect x="229.387" y="305.386" style="fill:#EBECEC;" width="31.773" height="33.391"/>
</g>
<g>
</g>
<g>
</g>
<g>
</g>
<g>
</g>
<g>
</g>
<g>
</g>
<g>
</g>
<g>
</g>
<g>
</g>
<g>
</g>
<g>
</g>
<g>
</g>
<g>
</g>
<g>
</g>
<g>
</g>
</svg>
